<svg id="Capa_1" enable-background="new 0 0 512 512" height="512" viewBox="0 0 512 512" width="512" xmlns="http://www.w3.org/2000/svg"><circle cx="256" cy="256" fill="#ffde91" r="256"/><path d="m479.133 381.547-223.133-223.133-82.136 152.019 181.546 181.546c52.455-22.125 95.982-61.234 123.723-110.432z" fill="#edc472"/><path d="m269.617 176.466c8.258 16.706 31.385 69.942 68.709 111.108 34.42 43.199 83.038 74.326 75.208 93.77-5.453 19.156-80.16 24.538-144.31-5.622-65.997-26.225-121.438-87.992-131.021-112.26-25.858-48.25-3.822-106.89 35.517-121.932 39.555-15.328 78.361 3.054 95.897 34.936z" fill="#fa5d0f"/><path d="m338.326 287.573c-37.324-41.165-60.452-94.402-68.709-111.108-17.536-31.882-56.342-50.263-95.897-34.936-6.926 2.648-13.312 6.653-18.999 11.709l189.926 242.87c36.615 3.445 65.569-3.11 68.887-14.764 7.83-19.445-40.788-50.572-75.208-93.771z" fill="#d13400"/><path d="m123.908 104.242h30.923v66.667h-30.923z" fill="#0d9b50" transform="matrix(.766 -.642 .642 .766 -55.818 121.685)"/><path d="m172.634 153.186-42.83-51.088-9.106 7.633 41.092 52.546z" fill="#097a44"/><path d="m230.013 139.881-104.193 87.349c-14.429-17.211-12.174-42.861 5.038-57.29l41.865-35.097c17.212-14.43 42.861-12.174 57.29 5.038z" fill="#0d9b50"/><path d="m230.013 139.881c-14.429-17.212-40.079-19.467-57.29-5.038l-19.563 16.4 25.066 32.053z" fill="#097a44"/></svg>